<svg id="visual" viewBox="0 0 960 300" width="960" height="300" xmlns="http://www.w3.org/2000/svg" xmlns:xlink="http://www.w3.org/1999/xlink" version="1.1"><rect x="0" y="0" width="960" height="300" fill="#9047c5"></rect><defs><linearGradient id="grad1_0" x1="68.8%" y1="100%" x2="100%" y2="0%"><stop offset="-14.000000000000007%" stop-color="#ffffff" stop-opacity="1"></stop><stop offset="114.00000000000001%" stop-color="#ffffff" stop-opacity="1"></stop></linearGradient></defs><defs><linearGradient id="grad1_1" x1="68.8%" y1="100%" x2="100%" y2="0%"><stop offset="-14.000000000000007%" stop-color="#ffffff" stop-opacity="1"></stop><stop offset="114.00000000000001%" stop-color="#ddc1ed" stop-opacity="1"></stop></linearGradient></defs><defs><linearGradient id="grad1_2" x1="68.8%" y1="100%" x2="100%" y2="0%"><stop offset="-14.000000000000007%" stop-color="#b885d9" stop-opacity="1"></stop><stop offset="114.00000000000001%" stop-color="#ddc1ed" stop-opacity="1"></stop></linearGradient></defs><defs><linearGradient id="grad1_3" x1="68.8%" y1="100%" x2="100%" y2="0%"><stop offset="-14.000000000000007%" stop-color="#b885d9" stop-opacity="1"></stop><stop offset="114.00000000000001%" stop-color="#9047c5" stop-opacity="1"></stop></linearGradient></defs><defs><linearGradient id="grad2_0" x1="0%" y1="100%" x2="31.3%" y2="0%"><stop offset="-14.000000000000007%" stop-color="#ffffff" stop-opacity="1"></stop><stop offset="114.00000000000001%" stop-color="#ffffff" stop-opacity="1"></stop></linearGradient></defs><defs><linearGradient id="grad2_1" x1="0%" y1="100%" x2="31.3%" y2="0%"><stop offset="-14.000000000000007%" stop-color="#ddc1ed" stop-opacity="1"></stop><stop offset="114.00000000000001%" stop-color="#ffffff" stop-opacity="1"></stop></linearGradient></defs><defs><linearGradient id="grad2_2" x1="0%" y1="100%" x2="31.3%" y2="0%"><stop offset="-14.000000000000007%" stop-color="#ddc1ed" stop-opacity="1"></stop><stop offset="114.00000000000001%" stop-color="#b885d9" stop-opacity="1"></stop></linearGradient></defs><defs><linearGradient id="grad2_3" x1="0%" y1="100%" x2="31.3%" y2="0%"><stop offset="-14.000000000000007%" stop-color="#9047c5" stop-opacity="1"></stop><stop offset="114.00000000000001%" stop-color="#b885d9" stop-opacity="1"></stop></linearGradient></defs><g transform="translate(960, 300)"><path d="M-255 0C-249.4 -46.4 -243.8 -92.8 -220.8 -127.5C-197.9 -162.2 -157.7 -185.1 -118 -204.4C-78.3 -223.7 -39.2 -239.3 0 -255L0 0Z" fill="#a566cf"></path><path d="M-191.2 0C-187 -34.8 -182.8 -69.6 -165.6 -95.6C-148.4 -121.6 -118.3 -138.8 -88.5 -153.3C-58.7 -167.8 -29.4 -179.5 0 -191.2L0 0Z" fill="#cba3e3"></path><path d="M-127.5 0C-124.7 -23.2 -121.9 -46.4 -110.4 -63.8C-99 -81.1 -78.8 -92.5 -59 -102.2C-39.2 -111.8 -19.6 -119.7 0 -127.5L0 0Z" fill="#eee0f6"></path><path d="M-63.7 0C-62.3 -11.6 -60.9 -23.2 -55.2 -31.9C-49.5 -40.5 -39.4 -46.3 -29.5 -51.1C-19.6 -55.9 -9.8 -59.8 0 -63.7L0 0Z" fill="#ffffff"></path></g><g transform="translate(0, 0)"><path d="M255 0C249.8 47.2 244.7 94.4 220.8 127.5C197 160.6 154.4 179.4 114.5 198.3C74.6 217.2 37.3 236.1 0 255L0 0Z" fill="#a566cf"></path><path d="M191.3 0C187.4 35.4 183.5 70.8 165.6 95.6C147.7 120.4 115.8 134.6 85.9 148.7C55.9 162.9 28 177.1 0 191.3L0 0Z" fill="#cba3e3"></path><path d="M127.5 0C124.9 23.6 122.3 47.2 110.4 63.7C98.5 80.3 77.2 89.7 57.3 99.2C37.3 108.6 18.6 118.1 0 127.5L0 0Z" fill="#eee0f6"></path><path d="M63.8 0C62.5 11.8 61.2 23.6 55.2 31.9C49.2 40.1 38.6 44.9 28.6 49.6C18.6 54.3 9.3 59 0 63.8L0 0Z" fill="#ffffff"></path></g></svg>